HIERARCHY
ROOT root
{
	OFFSET 0.000000 0.000000 0.000000
	CHANNELS 6 Xposition Yposition Zposition Zrotation Yrotation Xrotation
	JOINT lhip
	{
		OFFSET 0.058581 -0.082280 -0.017664
		CHANNELS 3 Zrotation Yrotation Xrotation
		JOINT lknee
		{
			OFFSET 0.043451 -0.386469 0.008037
			CHANNELS 3 Zrotation Yrotation Xrotation
			JOINT lankle
			{
				OFFSET -0.014790 -0.426874 -0.037428
				CHANNELS 3 Zrotation Yrotation Xrotation
				JOINT ltoe
				{
					OFFSET 0.041054 -0.060286 0.122042
					CHANNELS 3 Zrotation Yrotation Xrotation
					End Site
					{
						OFFSET 0.000000 0.000000 0.000000
					}
				}
			}
		}
	}
	JOINT rhip
	{
		OFFSET -0.060310 -0.090513 -0.013543
		CHANNELS 3 Zrotation Yrotation Xrotation
		JOINT rknee
		{
			OFFSET -0.043257 -0.383688 -0.004843
			CHANNELS 3 Zrotation Yrotation Xrotation
			JOINT rankle
			{
				OFFSET 0.019056 -0.420046 -0.034562
				CHANNELS 3 Zrotation Yrotation Xrotation
				JOINT rtoe
				{
					OFFSET -0.034840 -0.062106 0.130323
					CHANNELS 3 Zrotation Yrotation Xrotation
					End Site
					{
						OFFSET 0.000000 0.000000 0.000000
					}
				}
			}
		}
	}
	JOINT lowerback
	{
		OFFSET 0.004439 0.124404 -0.038385
		CHANNELS 3 Zrotation Yrotation Xrotation
		JOINT upperback
		{
			OFFSET 0.004488 0.137956 0.026820
			CHANNELS 3 Zrotation Yrotation Xrotation
			JOINT chest
			{
				OFFSET -0.002265 0.056032 0.002855
				CHANNELS 3 Zrotation Yrotation Xrotation
				JOINT lowerneck
				{
					OFFSET -0.013390 0.211636 -0.033468
					CHANNELS 3 Zrotation Yrotation Xrotation
					JOINT upperneck
					{
						OFFSET 0.010113 0.088937 0.050410
						CHANNELS 3 Zrotation Yrotation Xrotation
						End Site
						{
							OFFSET 0.000000 0.000000 0.000000
						}
					}
				}
				JOINT lclavicle
				{
					OFFSET 0.071702 0.114000 -0.018898
					CHANNELS 3 Zrotation Yrotation Xrotation
					JOINT lshoulder
					{
						OFFSET 0.122921 0.045205 -0.019046
						CHANNELS 3 Zrotation Yrotation Xrotation
						JOINT lelbow
						{
							OFFSET 0.255332 -0.015649 -0.022946
							CHANNELS 3 Zrotation Yrotation Xrotation
							JOINT lwrist
							{
								OFFSET 0.265709 0.012698 -0.007375
								CHANNELS 3 Zrotation Yrotation Xrotation
								End Site
								{
									OFFSET 0.000000 0.000000 0.000000
								}
							}
						}
					}
				}
				JOINT rclavicle
				{
					OFFSET -0.082954 0.112472 -0.023707
					CHANNELS 3 Zrotation Yrotation Xrotation
					JOINT rshoulder
					{
						OFFSET -0.113228 0.046853 -0.008472
						CHANNELS 3 Zrotation Yrotation Xrotation
						JOINT relbow
						{
							OFFSET -0.260127 -0.014369 -0.031269
							CHANNELS 3 Zrotation Yrotation Xrotation
							JOINT rwrist
							{
								OFFSET -0.269108 0.006794 -0.006027
								CHANNELS 3 Zrotation Yrotation Xrotation
								End Site
								{
									OFFSET 0.000000 0.000000 0.000000
								}
							}
						}
					}
				}
			}
		}
	}
}
MOTION
Frames: 13
Frame Time: 0.033333
-0.082950 1.330013 0.995114 -142.762986 0.733176 91.001266 2.592400 3.778170 3.549847 -2.899732 2.715173 -3.815548 -0.516642 12.689741 -8.578909 0.000000 -0.000000 0.000000 -3.031549 -3.936419 -0.226772 1.155869 0.073531 1.473367 5.775283 -3.275221 -5.526363 0.000000 -0.000000 0.000000 -1.223036 1.529841 -1.601142 0.608489 -1.598958 5.226745 0.228597 -1.232622 -2.681053 0.888366 6.163815 -3.490155 2.144457 1.129415 -4.499155 -26.118127 7.779403 0.242143 -57.271465 -1.361624 10.497532 8.448856 -34.740173 3.874507 -4.159841 -24.645380 -5.321252 27.380432 0.805726 0.501622 59.008343 3.291867 14.349703 -8.590389 20.101608 3.734572 0.433956 10.401369 4.696330 
-0.084489 1.329384 0.995133 -142.749266 0.761977 90.915925 2.520427 3.751500 3.713307 -2.904069 2.551062 -3.867464 -0.611875 12.747683 -8.648134 0.000000 -0.000000 0.000000 -3.098171 -3.581599 -0.003359 1.112294 0.041258 1.328473 6.042483 -3.568777 -5.475434 0.000000 -0.000000 0.000000 -1.166906 1.258439 -1.518916 0.446177 -1.496413 5.127462 0.341521 -1.195318 -2.273382 0.922948 6.179406 -3.875053 2.123515 1.056516 -4.509394 -25.987295 7.852188 0.267562 -57.488440 -1.573156 10.368649 8.527200 -34.831762 4.101285 -4.144997 -24.713041 -5.430906 27.345578 1.002256 0.443433 59.013283 3.376942 14.463912 -8.569924 20.130431 3.937735 0.243372 10.467873 4.512894 
-0.085975 1.327799 0.995079 -142.824577 0.842119 90.998318 2.485597 3.771949 3.526885 -2.992811 2.696943 -3.708250 -0.574565 12.626800 -8.762697 0.000000 -0.000000 0.000000 -3.093949 -3.666325 -0.216040 0.912717 0.086140 1.349972 5.746411 -3.427100 -5.644788 0.000000 -0.000000 0.000000 -1.008420 1.348706 -1.201491 0.446810 -1.508719 4.953513 0.316612 -1.167970 -2.459689 0.935993 6.131814 -4.050800 2.405759 1.307483 -4.399522 -25.835841 7.703134 0.422196 -57.530000 -1.341349 10.476993 8.251099 -35.186396 4.355430 -3.555738 -24.634702 -5.906227 27.148493 0.908218 0.407061 58.958784 3.133163 14.450801 -8.321328 20.803688 4.101634 -0.131328 10.732380 4.275096 
-0.088279 1.326284 0.995388 -142.861804 0.865770 90.968835 2.230721 3.531423 3.439036 -2.859324 2.855280 -3.428850 -0.421395 12.720924 -8.851487 0.000000 -0.000000 0.000000 -3.157603 -3.663514 -0.126705 0.715896 -0.111436 1.188065 5.641488 -3.411216 -5.486271 0.000000 -0.000000 0.000000 -0.997468 1.505106 -1.154909 0.507332 -1.535121 5.111575 0.312659 -1.252286 -2.328665 1.058686 6.164376 -4.126600 2.361850 1.026648 -4.898492 -25.961249 7.710015 0.149976 -57.640684 -1.480202 10.343666 8.406706 -35.182108 4.119807 -4.550679 -24.728207 -5.253304 27.252079 0.745112 0.478439 58.686989 2.745256 14.495339 -8.378254 22.455813 4.605869 0.460099 10.713899 5.183277 
-0.089699 1.325140 0.995332 -142.915128 0.882300 91.091663 2.142213 3.566440 3.335153 -2.938064 2.782860 -3.502525 -0.407072 12.733594 -8.914175 0.000000 -0.000000 0.000000 -3.278479 -3.365236 -0.448812 0.802279 -0.041041 1.616069 6.121835 -3.622843 -5.319091 0.000000 -0.000000 0.000000 -1.048720 1.428887 -1.188948 0.530015 -1.461271 5.255121 0.359522 -1.247587 -2.397020 1.014428 6.313648 -4.304315 2.509326 1.229571 -4.960422 -25.907651 7.598092 0.185728 -57.576723 -1.282568 10.392572 8.135525 -35.646672 4.171899 -3.988499 -24.673297 -5.604448 27.147010 0.866573 0.661873 58.511604 2.708217 14.613969 -7.844908 23.293483 4.767907 -0.058486 11.096974 4.916176 
-0.092124 1.324181 0.995156 -142.703775 1.079948 91.017697 2.158663 3.491918 3.411058 -2.874660 2.770786 -3.440494 -0.403702 12.644714 -8.967528 0.000000 -0.000000 0.000000 -3.139980 -3.386631 -0.093958 0.604710 -0.295089 1.227096 5.885294 -3.596866 -5.388242 0.000000 -0.000000 0.000000 -0.773816 1.311329 -0.950644 0.540293 -1.618283 5.116856 0.405065 -1.335578 -2.146714 1.083904 6.173720 -4.270297 2.437608 1.175371 -5.350102 -25.999293 7.582535 0.156713 -57.719504 -1.211286 10.217135 8.338633 -35.909492 4.237653 -4.132792 -24.758972 -5.691093 26.984836 0.720024 0.704641 58.506608 2.503513 14.601948 -7.665704 24.893075 5.122269 -0.015397 11.456203 4.684037 
-0.094648 1.322998 0.995010 -142.538520 1.246152 90.880537 2.246524 3.510342 3.670689 -3.016386 2.378262 -3.599392 -0.393361 12.816155 -8.991614 0.000000 -0.000000 0.000000 -3.124588 -2.615564 0.202492 0.593099 -0.678606 1.132359 5.887423 -4.076053 -5.499606 0.000000 -0.000000 0.000000 -0.550944 0.996678 -0.413840 0.531154 -1.566007 4.781824 0.430184 -1.246645 -2.147411 0.972016 5.899668 -4.167002 2.632540 1.118411 -5.407379 -25.909783 7.492415 0.233998 -57.726561 -1.077339 10.209838 8.212001 -36.201356 4.375335 -4.248258 -24.653212 -5.898889 26.686979 0.594032 0.528410 58.575711 1.887871 14.657192 -7.017498 26.323369 5.972888 0.056536 11.639120 4.440253 
-0.096927 1.321890 0.994684 -142.536946 1.380705 90.850132 2.342160 3.625236 3.783695 -3.252300 2.231440 -3.668292 -0.266902 12.779228 -9.090747 0.000000 -0.000000 0.000000 -3.130432 -2.758728 0.150844 0.546385 -0.537604 1.373425 5.845125 -4.044408 -5.561929 0.000000 -0.000000 0.000000 -0.504039 1.037922 -0.430503 0.606991 -1.684865 4.876402 0.484767 -1.459547 -2.069713 0.757213 6.063908 -4.251892 2.577859 1.139704 -5.617712 -25.809713 7.625835 0.189227 -57.863325 -1.017307 9.969911 8.096954 -36.578872 4.521870 -4.249546 -24.598074 -6.041852 26.551991 0.042076 0.393693 58.726898 2.053767 14.651917 -6.479980 27.344064 6.962300 0.607407 11.505092 4.692378 
-0.099817 1.320169 0.994610 -142.392564 1.456117 90.781988 2.198939 3.610589 3.877324 -3.271160 2.061941 -3.663521 -0.340340 12.783084 -9.083304 0.000000 -0.000000 0.000000 -3.214100 -2.520611 0.316663 0.428358 -0.842989 1.288796 5.831101 -4.289399 -5.614860 0.000000 -0.000000 0.000000 -0.372459 0.803135 -0.110490 0.566785 -1.777650 4.543109 0.526617 -1.534435 -1.953722 0.672075 5.867110 -4.185077 2.725892 1.236817 -5.637160 -25.759964 7.628074 0.200148 -58.030021 -0.903258 9.899322 8.400112 -36.587729 4.641904 -4.310487 -24.630612 -6.223659 26.501392 -0.078757 0.328392 58.756411 1.880240 14.773854 -6.101044 28.213603 7.696394 0.684877 11.684071 4.577816 
-0.103215 1.317526 0.994317 -142.418895 1.470207 90.788666 1.872982 3.568118 3.840275 -3.260394 2.059282 -3.597904 -0.227702 12.723589 -9.169109 0.000000 -0.000000 0.000000 -3.431124 -2.434309 0.174698 0.290752 -0.999244 1.529675 5.945728 -4.431110 -5.537877 0.000000 -0.000000 0.000000 -0.396837 0.861706 -0.109762 0.648610 -1.796052 4.797000 0.548031 -1.620347 -1.933930 0.690153 5.850552 -4.018242 2.616262 1.121419 -6.226533 -25.655736 7.357128 0.144853 -58.121638 -0.911832 9.929094 8.404724 -36.714326 4.307975 -4.623426 -24.420978 -6.007321 26.448727 -0.050865 0.195134 58.999344 1.584732 14.808167 -6.103641 29.301119 7.674720 0.812740 11.830942 4.723423 
-0.106084 1.316090 0.994162 -142.433413 1.587619 90.754943 1.778587 3.553116 3.904833 -3.265664 2.100943 -3.508826 -0.090137 12.709170 -9.304135 0.000000 -0.000000 0.000000 -3.434263 -2.510971 0.036974 0.087924 -0.975663 1.870573 5.921714 -4.271301 -5.775006 0.000000 -0.000000 0.000000 -0.375355 0.826534 -0.015088 0.719696 -1.942827 4.719739 0.603359 -1.668862 -1.708244 0.763028 5.852216 -3.999634 2.617529 1.028143 -6.791023 -25.543986 7.435276 -0.019975 -58.305236 -0.821127 9.833300 8.499213 -36.835728 4.274188 -4.912322 -24.366159 -5.945626 26.443194 -0.234673 0.184621 59.169540 1.588808 14.790374 -6.041817 30.249046 8.025124 1.091720 11.584497 4.815551 
-0.109001 1.313333 0.993973 -142.412102 1.572670 90.631196 1.512010 3.448718 3.932050 -3.368435 1.920198 -3.364806 0.062589 12.851127 -9.520310 0.000000 -0.000000 0.000000 -3.673014 -2.407741 -0.114728 -0.008146 -1.024327 2.343291 5.925696 -4.339262 -5.932203 0.000000 -0.000000 0.000000 -0.431448 0.755796 0.211345 0.653726 -1.950171 4.778836 0.675073 -1.800023 -1.528079 0.789985 5.842413 -4.049395 2.689085 1.145436 -7.857112 -25.281751 7.374133 -0.076933 -58.488142 -0.882370 9.869175 8.427727 -37.113769 4.468804 -4.718285 -24.273345 -6.443475 25.835773 0.036812 0.027363 59.409997 1.831417 15.270959 -4.710386 30.424045 8.821977 1.133782 11.652546 3.723460 
-0.112219 1.310741 0.993747 -142.323298 1.597669 90.611217 1.205012 3.348104 3.939817 -3.313304 1.704002 -3.338536 0.208383 12.929508 -9.605938 0.000000 -0.000000 0.000000 -3.840546 -2.306532 -0.598515 -0.148124 -0.988027 3.334927 6.252688 -4.423770 -6.158208 0.000000 -0.000000 0.000000 -0.482535 0.592848 0.316850 0.710753 -2.141267 4.862446 0.693200 -1.857721 -1.470122 0.841732 5.830064 -4.093055 2.756609 1.000896 -8.290355 -25.055310 7.437485 -0.323386 -58.654876 -0.734943 9.935462 8.245679 -37.330784 4.560353 -4.754204 -24.230702 -6.550586 25.664757 0.243499 0.151794 59.159684 2.073011 15.649407 -3.813721 31.582255 9.280586 1.426062 11.754574 3.385136 
